<svg viewBox="0 0 760 240" xmlns="http://www.w3.org/2000/svg" font-family="Arial, sans-serif" font-size="13">

  <!-- ── PANEL 1: ReLU (center 125, 108) ── -->
  <rect x="28" y="18" width="200" height="178" fill="none" stroke="#374151" rx="4"/>
  <!-- Axes -->
  <line x1="38" y1="108" x2="220" y2="108" stroke="#4B5563" stroke-width="1"/>
  <line x1="125" y1="22" x2="125" y2="192" stroke="#4B5563" stroke-width="1"/>
  <!-- Tick labels -->
  <text x="116" y="32" text-anchor="end" fill="#9CA3AF" font-size="10">1</text>
  <text x="162" y="121" text-anchor="middle" fill="#9CA3AF" font-size="10">1</text>
  <text x="88"  y="121" text-anchor="middle" fill="#9CA3AF" font-size="10">-1</text>
  <!-- ReLU curve -->
  <polyline points="35,108 125,108 197,28" fill="none" stroke="#3B82F6" stroke-width="2.5" stroke-linecap="round" stroke-linejoin="round"/>
  <!-- Title -->
  <text x="125" y="210" text-anchor="middle" fill="#F3F4F6" font-weight="bold" font-size="13">ReLU</text>
  <text x="125" y="224" text-anchor="middle" fill="#9CA3AF" font-size="11">max(0, z)</text>

  <!-- ── PANEL 2: Sigmoid (center 380, 108) ── -->
  <rect x="280" y="18" width="200" height="178" fill="none" stroke="#374151" rx="4"/>
  <!-- Axes -->
  <line x1="290" y1="108" x2="472" y2="108" stroke="#4B5563" stroke-width="1"/>
  <line x1="380" y1="22" x2="380" y2="192" stroke="#4B5563" stroke-width="1"/>
  <!-- Tick labels -->
  <text x="371" y="72" text-anchor="end" fill="#9CA3AF" font-size="10">1</text>
  <text x="371" y="152" text-anchor="end" fill="#9CA3AF" font-size="10">0</text>
  <!-- Sigmoid polyline -->
  <polyline points="290,142 308,139 326,133 344,127 362,118 380,108 398,98 416,90 434,83 452,78 470,74"
            fill="none" stroke="#10B981" stroke-width="2.5" stroke-linecap="round" stroke-linejoin="round"/>
  <!-- Title -->
  <text x="380" y="210" text-anchor="middle" fill="#F3F4F6" font-weight="bold" font-size="13">Sigmoid</text>
  <text x="380" y="224" text-anchor="middle" fill="#9CA3AF" font-size="11">1 / (1 + e⁻ᶻ)</text>

  <!-- ── PANEL 3: Tanh (center 635, 108) ── -->
  <rect x="532" y="18" width="200" height="178" fill="none" stroke="#374151" rx="4"/>
  <!-- Axes -->
  <line x1="542" y1="108" x2="724" y2="108" stroke="#4B5563" stroke-width="1"/>
  <line x1="635" y1="22" x2="635" y2="192" stroke="#4B5563" stroke-width="1"/>
  <!-- Tick labels -->
  <text x="626" y="72" text-anchor="end" fill="#9CA3AF" font-size="10">1</text>
  <text x="626" y="152" text-anchor="end" fill="#9CA3AF" font-size="10">-1</text>
  <!-- Tanh polyline -->
  <polyline points="545,148 563,147 581,144 599,138 617,126 635,108 653,90 671,78 689,72 707,69 725,68"
            fill="none" stroke="#F59E0B" stroke-width="2.5" stroke-linecap="round" stroke-linejoin="round"/>
  <!-- Title -->
  <text x="635" y="210" text-anchor="middle" fill="#F3F4F6" font-weight="bold" font-size="13">Tanh</text>
  <text x="635" y="224" text-anchor="middle" fill="#9CA3AF" font-size="11">tanh(z)</text>
</svg>
